<svg width="48" height="49" viewBox="0 0 48 49" fill="none" xmlns="http://www.w3.org/2000/svg">
<path d="M24 0.334106C10.7464 0.334106 0 11.0805 0 24.3341C0 37.5877 10.7464 48.3341 24 48.3341C37.2536 48.3341 48 37.5877 48 24.3341C48 11.0805 37.2536 0.334106 24 0.334106ZM34.3661 16.4966L23.0839 32.1395C22.9262 32.3596 22.7184 32.5389 22.4775 32.6626C22.2367 32.7863 21.9699 32.8509 21.6991 32.8509C21.4284 32.8509 21.1615 32.7863 20.9207 32.6626C20.6798 32.5389 20.472 32.3596 20.3143 32.1395L13.6339 22.8823C13.4304 22.5984 13.6339 22.202 13.9821 22.202H16.4946C17.0411 22.202 17.5607 22.4645 17.8821 22.9145L21.6964 28.2073L30.1179 16.5287C30.4393 16.0841 30.9536 15.8162 31.5054 15.8162H34.0179C34.3661 15.8162 34.5696 16.2127 34.3661 16.4966Z" fill="#30BF39"/>
</svg>
