<svg width="44" height="44" viewBox="0 0 44 44" fill="none" xmlns="http://www.w3.org/2000/svg">
<g filter="url(#filter0_d)">
<path d="M40 -0.185791H4C1.79086 -0.185791 0 1.60507 0 3.81421V39.8142C0 42.0233 1.79086 43.8142 4 43.8142H40C42.2091 43.8142 44 42.0233 44 39.8142V3.81421C44 1.60507 42.2091 -0.185791 40 -0.185791Z" fill="#0D0D0D"/>
<path d="M18.4375 19.2361H20.9219C22.8906 19.2361 23.875 18.2725 23.875 16.3455C23.875 15.5955 23.6406 14.9861 23.1719 14.5173C22.7031 14.0382 22.0417 13.7986 21.1875 13.7986C20.4896 13.7986 19.8802 14.0017 19.3594 14.408C18.849 14.8142 18.5938 15.3194 18.5938 15.9236H13.3281C13.3281 14.7257 13.6615 13.658 14.3281 12.7205C14.9948 11.783 15.9167 11.0538 17.0938 10.533C18.2811 10.0017 19.5833 9.73608 21 9.73608C23.5312 9.73608 25.5208 10.3142 26.9688 11.4705C28.4167 12.6267 29.1406 14.2153 29.1406 16.2361C29.1406 17.2153 28.8385 18.1423 28.2344 19.0173C27.6406 19.8819 26.7708 20.585 25.625 21.1267C26.8333 21.5642 27.7811 22.2309 28.4688 23.1267C29.1561 24.0121 29.5 25.1111 29.5 26.4236C29.5 28.4548 28.7188 30.0798 27.1562 31.2986C25.5938 32.5173 23.5417 33.1267 21 33.1267C19.5104 33.1267 18.125 32.8455 16.8438 32.283C15.5728 31.71 14.6094 30.9236 13.9531 29.9236C13.2969 28.9132 12.9688 27.7673 12.9688 26.4861H18.2656C18.2656 27.184 18.5469 27.7882 19.1094 28.2986C19.6719 28.809 20.3646 29.0642 21.1875 29.0642C22.1146 29.0642 22.8542 28.809 23.4062 28.2986C23.9583 27.7778 24.2344 27.1163 24.2344 26.3142C24.2344 25.1684 23.9479 24.3559 23.375 23.8767C22.8021 23.3975 22.0104 23.158 21 23.158H18.4375V19.2361Z" fill="#F2490C"/>
</g>
<defs>
<filter id="filter0_d" x="-4" y="-0.185791" width="52" height="52" filterUnits="userSpaceOnUse" color-interpolation-filters="sRGB">
<feFlood flood-opacity="0" result="BackgroundImageFix"/>
<feColorMatrix in="SourceAlpha" type="matrix" values="0 0 0 0 0 0 0 0 0 0 0 0 0 0 0 0 0 0 127 0"/>
<feOffset dy="4"/>
<feGaussianBlur stdDeviation="2"/>
<feColorMatrix type="matrix" values="0 0 0 0 0 0 0 0 0 0 0 0 0 0 0 0 0 0 0.25 0"/>
<feBlend mode="normal" in2="BackgroundImageFix" result="effect1_dropShadow"/>
<feBlend mode="normal" in="SourceGraphic" in2="effect1_dropShadow" result="shape"/>
</filter>
</defs>
</svg>
