<svg width="44" height="45" viewBox="0 0 44 45" fill="none" xmlns="http://www.w3.org/2000/svg">
<rect y="0.814209" width="44" height="44" rx="4" fill="#0D0D0D"/>
<path d="M29.5 33.8142H13.625V30.3767L20.9375 22.6892C22.7396 20.6371 23.6406 19.0069 23.6406 17.7986C23.6406 16.8194 23.4271 16.0746 23 15.5642C22.5729 15.0538 21.9531 14.7986 21.1406 14.7986C20.3385 14.7986 19.6875 15.1423 19.1875 15.8298C18.6875 16.5069 18.4375 17.3559 18.4375 18.3767H13.1562C13.1562 16.9809 13.5052 15.6944 14.2031 14.5173C14.901 13.3298 15.8698 12.4028 17.1094 11.7361C18.349 11.0694 19.7344 10.7361 21.2656 10.7361C23.724 10.7361 25.6146 11.3038 26.9375 12.4392C28.2708 13.5746 28.9375 15.2048 28.9375 17.3298C28.9375 18.2257 28.7708 19.1007 28.4375 19.9548C28.1042 20.7986 27.5833 21.6892 26.875 22.6267C26.1771 23.5538 25.0469 24.7986 23.4844 26.3611L20.5469 29.7517H29.5V33.8142Z" fill="#F2490C"/>
</svg>
