<svg xmlns="http://www.w3.org/2000/svg" width="45" height="65" viewBox="0 0 45 65"><g><g><g/><g><g><g><path fill="#cc9947" d="M37.283 5.171s.087-1.012 1.935-1.554c-1.81-.844-3.327 1.136-3.327 1.136L33.2 4.078s-.891-2.07 1.389-2.651c-1.598-.966-3.24 1.768-3.24 1.768s-3.153-4.25-4.125-2.947c1.852.801 1.178 2.525 1.178 2.525S5.732-4.129.22 16.233c1.473-2.352 1.852-1.851 1.852-1.851s-1.95 12.663.8 20.825c.604.655 1.092 1.179 1.092 1.179s-1.131-4.787-.119-8.93c.708-2.892 3.565-5.119 3.906-6.691.561-3.442-.675-6.786 3.253-9.311 3.925-2.524 9.999.737 12.283.618 2.285-.122 7.494-3.61 11.387-1.516 4.17 2.245 2.745 8.943 2.862 9.93.224 1.231 1.935 2.465 3.071 4.483 1.136 2.02-.422 12.427-.422 12.427s.548.252 1.053-.42c.505-.671 2.651-18.681 2.442-19.312-.213-.631.167-1.516 1.053-.463.753-6.647-7.45-12.03-7.45-12.03z"/></g><g><path fill="#cc9947" d="M37.916 42.49c-.462 2.017-3.284 8.29-4.25 8.96-.969.67-7.528-3.196-9.677-3.281-2.144-.083-8.077 2.184-9.379 1.64-1.302-.543-10.306-14.007-10.854-12.407-.548 1.598 3.088 7.016 3.197 8.205.109 1.19.038 2.709 1.221 4.207 1.183 1.498 3.49 4.377 4.963 6.268 0-1.513.589-1.43.589-1.43s4.712 6.31 5.973 5.428c-1.472-.93-.884-1.812-.884-1.812s3.493 6.477 4.627 6.73c1.135.252 5.131-6.943 5.131-6.943s1.013 1.556 0 2.483c1.432.128 7.067-5.469 9.088-9.759 2.018-4.292 2.947-12.2 2.947-12.2s-2.23 1.888-2.692 3.91z"/></g></g></g></g></g></svg>