<svg xmlns="http://www.w3.org/2000/svg" width="63" height="65" viewBox="0 0 63 65"><g><g><g/><g><g><path fill="#cc9947" d="M62.456 19.493C60.498 22.36 22.25 53.415 7.863 54.675c-1.904 3.734-4.07 7.468-6.4 10.244C.09 65.41.14 63.505.14 63.505s1.663-3.806 4.162-9.534C1.646 52.795.77 50.935 2.466 50.19c1.51-.735 2.991-1.475 4.454-2.21 7.582-17.355 18.974-43.436 20.25-46.36 1.933-4.425 7.342 1.612 7.342 1.612S23.04 30.539 22.77 31.193c-.276.65-2.303-.761-2.303-.761s-3.848 7.398-5.74 10.01c-.547.75-1.359 2.482-2.386 4.74 21.414-11.335 36.996-22.98 45.56-34.804.435-2.934 6.572 6.172 4.556 9.115zM10.14 49.802a1.115 1.115 0 1 0-1.628 1.522 1.115 1.115 0 0 0 1.628-1.522z"/></g></g></g></g></svg>