<svg height="105" viewBox="0 0 161 105" width="161" xmlns="http://www.w3.org/2000/svg"><g fill="#d89a37" fill-opacity=".1" transform="matrix(-1 0 0 -1 161 105)"><path d="m124.654.8c-20.556 0-36.787 16.666-36.787 37.222s16.883 37.222 37.439 37.222c.205 0 .515-.027.721-.03-8.127 6.471-18.336 10.371-29.51 10.371-5.14 0-9.277 4.168-9.277 9.306 0 5.137 3.307 9.305 8.448 9.305 36.487-.003 65.317-29.687 65.317-66.174v-.024c0-20.546-15.802-37.198-36.351-37.198z"/><path d="m37.466.8c-20.556 0-36.814 16.666-36.814 37.222s16.868 37.222 37.428 37.222c.205 0 .508-.028.714-.03-8.127 6.471-18.34 10.371-29.513 10.371-5.14 0-9.281 4.168-9.281 9.306 0 5.137 3.36 9.305 8.5 9.305 36.487-.003 65.37-29.687 65.37-66.174v-.024c0-20.546-15.856-37.198-36.405-37.198z"/></g></svg>