<svg xmlns="http://www.w3.org/2000/svg" width="65" height="61" viewBox="0 0 65 61"><g><g><g/><g><g><path fill="#cc9947" d="M65 40.097c-.068.857-.968 3.6-4.3 2.73-.901-.203-1.853.03-2.51.263-.179 1.58-.85 3.03-2 4.128a6.58 6.58 0 0 1-1.035.812c-2.82 1.792-6.636 1.25-9.064-1.287a7.467 7.467 0 0 1-2.043-4.545c-.008.004-.024.016-.032.016-.877-4.365-8.588-9.058-14.623-8.969-.506 1.121 4.444 13.13 6.136 14.738a8.47 8.47 0 0 1 2.046 2.22c.864 1.362 1.392 2.047 2.03 3.95-.748 2.369-1.7 4.83-3.614 6.047-3.117 1.978-7.476.714-9.72-2.819-2.186-3.439-1.55-7.768 1.365-9.816.006-.016-.002-.03.006-.044 3.235-2.293.148-6.786-1.38-11.075L9.184 54.165l-.547-.498 17.14-18.837c-.05-.213-.103-.426-.14-.637C24.748 33.468 0 11.856 0 11.856s14.573 9.347 23.883 14.24a48.267 48.267 0 0 0-.173-.655L16.15-.13l13.793 29.262c.324.139.556.228.685.257.027.006.053.02.08.027l4.507-4.957 3.984-4.376c.186-.204.377-.416.57-.626L50.778 7.354l2.191-2.408c1.744-1.915 6.22-.938 8.32 2.293.11.169-.032.28-.17.183-1.036-.724-1.987-1.311-2.867-1.635l2.38 2.166-.324.357-3.053-2.778a2.859 2.859 0 0 0-.715.002l3.443 3.133-.326.355-3.678-3.347c-.155.059-.31.134-.462.23l3.817 3.471-.326.357-3.885-3.534a3.06 3.06 0 0 0-.267.275l3.897 3.546-.324.355-3.901-3.548-.3.332 3.9 3.548-.326.357L53.9 7.515c-.104.109-.211.228-.325.355l3.902 3.55-.325.355-3.901-3.55-.327.356 3.902 3.55-.323.355-3.901-3.55-.04.042-.262.29 3.9 3.546-.323.357-3.902-3.548-.324.356 3.903 3.553-.324.354-3.902-3.549a30.15 30.15 0 0 1-.234.258l3.9 3.55-.324.354-3.9-3.548-.301.333 3.897 3.548-.322.357-3.902-3.549c-.107.115-.215.235-.326.358l3.9 3.545-.322.358-3.9-3.551c-.108.118-.216.234-.325.356l3.901 3.55-.324.355-3.902-3.548-.302.332 3.901 3.549-.322.356-3.902-3.548a53.8 53.8 0 0 0-.324.354l3.901 3.551-.324.356-3.902-3.55-.268.296 3.901 3.548-.324.357-3.902-3.548-.298.33 3.901 3.548-.324.357-3.902-3.549c-.087.094-.173.188-.258.284L50 19.635l-.326.356-3.902-3.549c-.1.11-.199.223-.302.333l3.901 3.55-.323.357-3.9-3.551c-.112.118-.218.239-.327.357l3.897 3.555-.32.356-3.902-3.55-.324.357 3.901 3.548-.322.357-3.902-3.55c-.101.111-.203.221-.302.331l3.9 3.55-.325.356-3.902-3.55c-.107.12-.215.238-.324.358l3.901 3.548-.324.357-3.902-3.549c-.075.084-.155.172-.234.257l3.9 3.55-.322.355-3.9-3.548c-.1.112-.2.222-.301.33l3.899 3.55-.323.357-3.9-3.55c-.112.12-.22.238-.327.356l3.9 3.55-.322.354-3.9-3.55c-.112.121-.218.24-.323.358l3.903 3.544-.325.357-3.9-3.549a16.4 16.4 0 0 1-.303.333l3.9 3.55-.322.357-3.9-3.55c-.112.12-.22.238-.325.356l3.901 3.55-.324.355-3.902-3.55c-.091.104-.18.202-.266.297l3.9 3.549-.324.356-3.9-3.55c-.104.116-.21.23-.301.332l3.9 3.55-.326.355-3.9-3.548c-.124.134-.234.253-.327.356l3.903 3.55-.325.356-3.9-3.548a4.363 4.363 0 0 0-.303.375l3.881 3.527-.326.357-3.81-3.463c-.072.149-.13.3-.171.45l3.678 3.345-.324.357-3.442-3.133c-.008.235.012.47.068.711l3.053 2.78-.326.355-2.38-2.166c.417.866 1.114 1.783 1.958 2.77.103.125-.052.208-.231.117-.92-.48-2.898-1.489-4.777-1.611 1.19.846 2.426 1.798 3.784 2.238 2.474.802 7.316 3.726 10.412 2.335.025-.006.037.004.06 0 2.738-1.338 6.16-.723 8.407 1.624a7.59 7.59 0 0 1 1.75 3.023c2.334 1.555 7.151-.846 7.084-.033zm-37.578-8.421a1.45 1.45 0 0 0-1.555-2.452 1.451 1.451 0 1 0 1.555 2.452zm1.661 17.644c-2.05 1.302-2.444 4.371-.879 6.837 1.566 2.466 4.51 3.412 6.56 2.108 2.051-1.302 2.447-4.367.88-6.835-.939-1.475-2.372-2.394-3.81-2.623-.166-.016-.335-.03-.505-.048-.79-.034-1.567.127-2.246.561zm26.898-7.076a5.208 5.208 0 0 0-1.471-3.555c-1.678-1.75-4.275-2.145-6.18-.937a4.388 4.388 0 0 0-.681.533c-.894.856-1.381 2.032-1.372 3.32.012 1.308.534 2.572 1.471 3.551 1.678 1.756 4.278 2.15 6.185.944.242-.156.47-.339.68-.538.888-.852 1.378-2.034 1.368-3.318z"/></g></g></g></g></svg>