<svg xmlns="http://www.w3.org/2000/svg" width="45" height="15" viewBox="0 0 45 15"><g><g><path fill="#cc9947" d="M29.266 14.196a15.485 15.485 0 0 1-2.256-.826c-2.198-1.023-3.651-2.35-4.497-3.792-.846 1.43-2.3 2.77-4.497 3.792-.73.337-1.484.618-2.257.838-2.722.81-5.62.821-8.348.031A10.577 10.577 0 0 1 .775 8.41a13.32 13.32 0 0 1-.724-1.958.944.944 0 0 1 1.7-.796c1.351 1.657 2.476 2.222 3.47 2.131.996-.09 2.089-.88 3.134-1.892.251-.239.643-.63 1.042-1.03.784-.783 1.646-1.641 2.543-2.397C14.843.015 17.702-.274 19.853.666a5.927 5.927 0 0 1 2.66 2.28 5.926 5.926 0 0 1 2.664-2.28c2.15-.925 5.01-.65 7.913 1.802.897.756 1.743 1.602 2.542 2.397.392.392.783.784 1.046 1.03 1.058 1.011 2.1 1.802 3.134 1.892 1.034.09 2.119-.474 3.47-2.13a.944.944 0 0 1 1.68.802c-.189.671-.431 1.326-.724 1.96a10.577 10.577 0 0 1-6.636 5.816 14.82 14.82 0 0 1-8.348-.03"/></g></g></svg>