<svg xmlns="http://www.w3.org/2000/svg" width="70" height="61" viewBox="0 0 70 61"><g><g><g/><g><g><g><path fill="#cc9947" d="M69.824 31.438C61.49-2.048 31.031 3.722 31.031 3.722s-3.106-.987 1.97-3.238c-9.245-2.18-15 5.63-15 5.63s-1.97.069-1.97-3.236c-2.35.278-.152 6.046-.152 6.046s-6.516.143-8.033-.84c-.756 2.249 5.243 1.796 6.972 2.391-30.46 1.968-4.546 40.665-4.394 37.57-4.546-18.151 6.365-24.764 6.365-24.764s9.243 8.654 16.668 7.883c-7.88-2.815-6.34-4.223-6.34-4.223s12.629.985 24.826-4.362c5.15.21 9.394 10.52 10.606 23.359 5.722-3.834 4.244-14.496 4.244-14.496s4.092 3.094 3.031-.004z"/></g><g><path fill="#cc9947" d="M48.061 55.108c-1.957-1.505-6.505-6.36-12.227-1.136-5.55-4.695-9.947-.023-11.86 1.453-7.16 3.06-7.501-.686-7.673-1.692-5.397 9.025 11.82 6.965 14.322 6.965 2.376 0 5.489-1.32 5.794-1.45 1.15.435 3.266 1.133 4.995 1.133 2.496 0 19.715 2.059 14.319-6.962-.167 1.002-.51 4.75-7.67 1.69z"/></g></g></g></g></g></svg>