<svg xmlns="http://www.w3.org/2000/svg" width="12" height="12" viewBox="0 0 12 12"><g><g><g/><g><g><path fill="#cca05a" d="M10.521 1.5c.403 0 .729.312.729.69v8.376c0 .38-.326.684-.729.684H1.48c-.403 0-.729-.305-.729-.682V2.189c0-.377.326-.689.729-.689h.771v.954c0 .527.563.921 1.125.921.563 0 1.125-.394 1.125-.921V1.5h3v.954c0 .527.581.921 1.144.921.562 0 1.106-.394 1.106-.921V1.5zm-.396 2.909c0-.16-.138-.284-.31-.284H2.188c-.174 0-.312.127-.312.288V9.84c0 .155.134.279.298.286l7.652-.002c.164 0 .3-.127.3-.282z"/></g><g><path fill="#cca05a" d="M4.13 2.25a.75.75 0 1 1-1.5 0V1.5a.75.75 0 1 1 1.5 0z"/></g><g><path fill="#cca05a" d="M9.38 2.25a.75.75 0 1 1-1.5 0V1.5a.75.75 0 1 1 1.5 0z"/></g></g></g></g></svg>