<svg xmlns="http://www.w3.org/2000/svg" width="25" height="15" viewBox="0 0 25 15"><g><g><path fill="#fff" d="M24.867 13.252a1.732 1.732 0 0 0-.084-.163c-.434-.781-1.263-1.74-2.486-2.877l-.026-.026-.013-.013-.013-.013h-.013c-.556-.53-.907-.885-1.055-1.067-.269-.347-.33-.699-.182-1.055.104-.269.495-.837 1.171-1.705.356-.46.638-.828.846-1.106 1.502-1.996 2.153-3.272 1.953-3.827l-.078-.13c-.052-.078-.186-.15-.403-.215-.217-.065-.495-.075-.833-.032l-3.749.026a.486.486 0 0 0-.26.006l-.17.04-.065.032-.052.04a.579.579 0 0 0-.143.136.893.893 0 0 0-.13.228 21.26 21.26 0 0 1-1.393 2.928 27.733 27.733 0 0 1-.885 1.4c-.269.394-.495.685-.677.872a4.715 4.715 0 0 1-.494.449c-.148.113-.26.16-.339.143a9.476 9.476 0 0 1-.221-.052.865.865 0 0 1-.293-.32 1.428 1.428 0 0 1-.15-.507 5.57 5.57 0 0 1-.045-.527 10.97 10.97 0 0 1 .006-.625c.01-.269.014-.451.014-.547 0-.33.006-.687.019-1.073l.032-.918c.01-.226.013-.464.013-.716 0-.252-.015-.449-.045-.592a2.026 2.026 0 0 0-.136-.417.702.702 0 0 0-.267-.312 1.504 1.504 0 0 0-.436-.176c-.46-.104-1.046-.16-1.758-.17-1.614-.016-2.65.088-3.11.313a1.753 1.753 0 0 0-.495.39c-.156.192-.178.296-.065.313.52.078.889.265 1.106.56l.078.156c.06.113.122.312.182.599.061.286.1.603.118.95.043.633.043 1.176 0 1.627-.044.451-.085.803-.124 1.054-.04.252-.098.456-.176.612a2.58 2.58 0 0 1-.156.286.224.224 0 0 1-.065.065.975.975 0 0 1-.352.066c-.121 0-.269-.061-.442-.183a3.123 3.123 0 0 1-.54-.5 6.7 6.7 0 0 1-.632-.893 15.562 15.562 0 0 1-.729-1.353l-.208-.378a32.48 32.48 0 0 1-.533-1.06 20.462 20.462 0 0 1-.6-1.348.858.858 0 0 0-.312-.416l-.065-.04a.89.89 0 0 0-.208-.11 1.381 1.381 0 0 0-.3-.085l-3.566.026c-.364 0-.612.083-.742.248l-.052.078A.421.421 0 0 0 0 1.556c0 .095.026.213.078.351a42.961 42.961 0 0 0 1.699 3.54C2.388 6.586 2.92 7.5 3.37 8.195c.451.694.911 1.35 1.38 1.966.469.616.779 1.01.93 1.184.152.174.272.304.359.39l.325.313c.208.208.514.458.918.748.403.291.85.578 1.34.86.49.282 1.061.512 1.712.69.65.177 1.284.249 1.9.214h1.498c.303-.026.533-.121.69-.286l.051-.065a.865.865 0 0 0 .098-.24c.03-.11.045-.229.045-.359a4.29 4.29 0 0 1 .085-1.008c.065-.3.139-.525.221-.677a1.664 1.664 0 0 1 .502-.573.863.863 0 0 1 .103-.045c.209-.07.454-.003.736.202.282.203.547.455.794.755.248.299.545.635.892 1.008s.65.65.91.833l.261.157c.174.104.4.2.677.286.277.087.52.108.729.065l3.332-.052c.33 0 .586-.055.768-.163.182-.108.29-.228.325-.358.035-.13.037-.277.007-.443a1.636 1.636 0 0 0-.091-.344z"/></g></g></svg>