<svg xmlns="http://www.w3.org/2000/svg" width="14" height="14" viewBox="0 0 14 14"><g><g><path fill="#cca05a" d="M13.3 6.898c0 3.39-2.77 6.138-6.185 6.138a6.196 6.196 0 0 1-2.99-.764L.7 13.36l1.117-3.293a6.073 6.073 0 0 1-.888-3.17C.929 3.508 3.699.76 7.115.76S13.3 3.508 13.3 6.898zm-6.185-5.16c-2.868 0-5.2 2.314-5.2 5.16 0 1.129.367 2.175.99 3.025l-.65 1.917 1.998-.636c.822.54 1.805.854 2.862.854 2.867 0 5.2-2.315 5.2-5.16s-2.333-5.16-5.2-5.16zm3.035 7.289c-.127.351-.746.69-1.024.715-.278.025-.278.226-1.82-.376-1.54-.602-2.514-2.171-2.59-2.271-.076-.1-.619-.816-.619-1.556 0-.74.392-1.104.53-1.255a.56.56 0 0 1 .405-.188c.101 0 .203.012.29.012.09 0 .216-.05.342.251.126.302.43 1.042.468 1.117.038.076.063.163.012.264-.05.1-.075.163-.151.25-.076.088-.16.197-.228.264-.076.075-.155.156-.066.307.088.15.393.643.843 1.042.58.512 1.068.671 1.22.746.151.076.24.063.328-.038.089-.1.38-.439.48-.59.101-.15.202-.125.341-.074.139.05.885.414 1.036.489.152.075.253.113.291.175.038.063.038.364-.088.716z"/></g></g></svg>