<svg xmlns="http://www.w3.org/2000/svg" width="18" height="18" viewBox="0 0 18 18"><g><g><g/><g><g><g><path fill="#fff" d="M12.375 0A5.626 5.626 0 0 1 18 5.625v6.75A5.626 5.626 0 0 1 12.375 18h-6.75A5.626 5.626 0 0 1 0 12.375v-6.75A5.626 5.626 0 0 1 5.625 0zm3.938 5.625a3.942 3.942 0 0 0-3.938-3.938h-6.75a3.942 3.942 0 0 0-3.938 3.938v6.75a3.942 3.942 0 0 0 3.938 3.938h6.75a3.942 3.942 0 0 0 3.938-3.938z"/></g></g></g><g><g><g><path fill="#fff" d="M13.5 9a4.5 4.5 0 1 1-9 0 4.5 4.5 0 0 1 9 0zm-1.688 0A2.816 2.816 0 0 0 9 6.187 2.816 2.816 0 0 0 6.187 9 2.816 2.816 0 0 0 9 11.813 2.816 2.816 0 0 0 11.813 9z"/></g></g></g><g><g><g><path fill="#fff" d="M13.84 4.76a.6.6 0 1 0 0-1.2.6.6 0 0 0 0 1.2z"/></g></g></g></g></g></svg>