<svg width="18" height="18" viewBox="0 0 18 18" fill="none" xmlns="http://www.w3.org/2000/svg">
<g clip-path="url(#clip0)">
<path d="M17.9046 13.1398C17.8828 13.0928 17.8625 13.0538 17.8436 13.0226C17.5313 12.4601 16.9345 11.7698 16.0536 10.9513L16.0349 10.9325L16.0256 10.9233L16.0162 10.9139H16.0068C15.6069 10.5328 15.3538 10.2765 15.2477 10.1453C15.0537 9.89537 15.0103 9.64239 15.1163 9.38606C15.1912 9.19239 15.4726 8.78339 15.9598 8.15849C16.216 7.82732 16.419 7.56189 16.5689 7.36192C17.6499 5.92483 18.1185 5.00651 17.9747 4.6066L17.9189 4.51315C17.8814 4.45688 17.7845 4.40541 17.6285 4.35847C17.4721 4.31163 17.2723 4.30388 17.0285 4.3351L14.3295 4.35375C14.2858 4.33825 14.2234 4.3397 14.142 4.35847C14.0608 4.37725 14.0201 4.38667 14.0201 4.38667L13.9732 4.41014L13.9359 4.43834C13.9046 4.45698 13.8703 4.48977 13.8327 4.53665C13.7954 4.58336 13.7642 4.63818 13.7392 4.70064C13.4454 5.45664 13.1113 6.15953 12.7363 6.80927C12.5051 7.19671 12.2928 7.53248 12.0989 7.81678C11.9053 8.10098 11.7428 8.31037 11.6117 8.4446C11.4804 8.57895 11.3619 8.68658 11.2555 8.76789C11.1493 8.84923 11.0682 8.8836 11.012 8.87103C10.9557 8.85846 10.9027 8.84598 10.8525 8.83351C10.7651 8.77725 10.6948 8.70073 10.6418 8.6039C10.5885 8.50706 10.5527 8.38518 10.5339 8.23835C10.5153 8.09143 10.5043 7.96505 10.5011 7.8588C10.4982 7.75267 10.4995 7.60256 10.5059 7.40889C10.5124 7.21513 10.5153 7.08402 10.5153 7.01529C10.5153 6.77783 10.5199 6.52012 10.5292 6.24209C10.5387 5.96406 10.5463 5.74376 10.5527 5.58148C10.5591 5.41902 10.562 5.24715 10.562 5.06596C10.562 4.88476 10.551 4.74266 10.5292 4.63952C10.5077 4.53652 10.4746 4.43653 10.4311 4.3396C10.3872 4.24276 10.3231 4.16786 10.2389 4.11468C10.1546 4.06157 10.0498 4.01942 9.92498 3.98811C9.59381 3.91317 9.1721 3.87263 8.65967 3.86632C7.49762 3.85385 6.75094 3.92889 6.4198 4.09134C6.2886 4.15998 6.16987 4.25376 6.06371 4.37239C5.95122 4.5099 5.93553 4.58493 6.01674 4.59728C6.39167 4.65344 6.6571 4.78779 6.81331 5.00021L6.86961 5.11276C6.9134 5.19397 6.95712 5.33775 7.00088 5.54389C7.04457 5.75003 7.07276 5.97807 7.08517 6.22787C7.11635 6.68404 7.11635 7.07453 7.08517 7.39937C7.05389 7.72434 7.02435 7.97733 6.99615 8.15852C6.96795 8.33972 6.9258 8.48655 6.86961 8.59897C6.81331 8.71143 6.77586 8.78017 6.75708 8.80512C6.73834 8.83006 6.72271 8.84579 6.71031 8.85196C6.6291 8.88308 6.54464 8.89893 6.45722 8.89893C6.36968 8.89893 6.26352 8.85514 6.13859 8.76763C6.01369 8.68012 5.88406 8.55991 5.74971 8.40681C5.61535 8.25368 5.46383 8.0397 5.29508 7.76482C5.12645 7.48994 4.9515 7.16507 4.7703 6.7902L4.62039 6.51834C4.52667 6.34345 4.39865 6.08879 4.2362 5.7546C4.07365 5.42027 3.92997 5.09688 3.80507 4.78448C3.75515 4.65328 3.68014 4.55339 3.58019 4.48465L3.53328 4.45646C3.5021 4.43151 3.45204 4.40502 3.38337 4.37679C3.3146 4.34859 3.24284 4.32837 3.1678 4.31593L0.599915 4.33458C0.337509 4.33458 0.159465 4.39402 0.0657162 4.51275L0.0281969 4.56892C0.00945368 4.6002 0 4.65016 0 4.71893C0 4.78766 0.0187432 4.87202 0.0562625 4.97191C0.431127 5.85294 0.838784 6.70262 1.27923 7.52109C1.71968 8.33955 2.10243 8.99885 2.42723 9.49839C2.7521 9.99828 3.08325 10.4701 3.42066 10.9135C3.75807 11.3572 3.98141 11.6415 4.09069 11.7664C4.20009 11.8915 4.28603 11.9851 4.3485 12.0475L4.58283 12.2724C4.73278 12.4224 4.95297 12.602 5.24351 12.8113C5.53411 13.0207 5.85583 13.2268 6.20883 13.43C6.5619 13.6329 6.97265 13.7985 7.44129 13.9265C7.90987 14.0547 8.36595 14.1062 8.80958 14.0814H9.88737C10.1059 14.0625 10.2716 13.9937 10.3841 13.8751L10.4214 13.8281C10.4465 13.7908 10.4699 13.7329 10.4916 13.655C10.5135 13.5769 10.5244 13.4908 10.5244 13.3972C10.518 13.1286 10.5385 12.8865 10.5852 12.671C10.6319 12.4555 10.6852 12.2931 10.7447 12.1837C10.8042 12.0744 10.8714 11.9821 10.9461 11.9074C11.0211 11.8324 11.0744 11.787 11.1057 11.7714C11.1369 11.7557 11.1617 11.745 11.1805 11.7386C11.3304 11.6887 11.5069 11.737 11.7101 11.884C11.9132 12.0308 12.1037 12.2121 12.2819 12.4276C12.4599 12.6432 12.6739 12.8852 12.9238 13.1538C13.1738 13.4225 13.3924 13.6223 13.5798 13.7537L13.7671 13.8661C13.8923 13.9412 14.0547 14.0099 14.2547 14.0724C14.4543 14.1348 14.6292 14.1504 14.7794 14.1192L17.1785 14.0818C17.4158 14.0818 17.6004 14.0425 17.7314 13.9645C17.8626 13.8864 17.9406 13.8004 17.9657 13.7068C17.9908 13.6131 17.9922 13.5068 17.9705 13.388C17.9483 13.2695 17.9264 13.1866 17.9046 13.1398Z" fill="#231F20"/>
</g>
<defs>
<clipPath id="clip0">
<rect width="18" height="18" fill="white"/>
</clipPath>
</defs>
</svg>
