<svg width="459" height="53" viewBox="0 0 459 53" fill="none" xmlns="http://www.w3.org/2000/svg">
<path d="M27.0625 50.0156C25.9792 50.7031 24.7708 51.0468 23.4375 51.0468C22.125 51.0468 20.9062 50.7031 19.7812 50.0156C18.6354 50.7031 17.5833 51.0468 16.625 51.0468C15.6667 51.0468 14.8958 50.9635 14.3125 50.7968C13.7292 50.651 13.2188 50.4426 12.7812 50.1718C11.8854 49.6301 11.4375 48.9531 11.4375 48.1406C11.4375 47.7239 11.5521 47.3593 11.7812 47.0468C12.2396 47.401 12.8438 47.5781 13.5938 47.5781C14.3646 47.5781 15.1354 47.3801 15.9062 46.9843C16.6979 46.5885 17.2917 45.9739 17.6875 45.1406V29.9218C17.6875 28.9635 17.4896 28.2551 17.0938 27.7968C16.4688 27.026 15.3958 26.2656 13.875 25.5156C15.2917 24.8697 16.2083 24.2968 16.625 23.7968C17.3333 22.9843 17.6875 22.0676 17.6875 21.0468V6.54681C17 6.29681 16.1771 6.17181 15.2188 6.17181C14.2812 6.17181 13.2917 6.42181 12.25 6.92181C11.2083 7.42181 10.2708 8.15098 9.4375 9.10931C7.58333 11.276 6.65625 14.1093 6.65625 17.6093C6.65625 19.6301 6.98958 21.1197 7.65625 22.0781C7.40625 22.5989 6.9375 22.8593 6.25 22.8593C5.5625 22.8593 4.94792 22.7031 4.40625 22.3906C3.86458 22.0781 3.39583 21.651 3 21.1093C2.1875 20.026 1.78125 18.8593 1.78125 17.6093C1.78125 16.3593 2.01042 15.2968 2.46875 14.4218C1.69792 13.5051 1.3125 12.4739 1.3125 11.3281C1.3125 10.1614 1.625 9.20306 2.25 8.45306C1.375 7.51556 0.9375 6.25515 0.9375 4.67181C0.9375 2.83848 1.78125 1.60931 3.46875 0.984314C3.96875 0.796814 4.40625 0.703064 4.78125 0.703064C5.48958 0.703064 6.02083 0.859314 6.375 1.17181C6.22917 1.67181 6.15625 2.02598 6.15625 2.23431C6.15625 3.06765 6.44792 3.48431 7.03125 3.48431C7.34375 3.48431 7.66667 3.44265 8 3.35931L9.40625 2.95306C11.8438 2.30723 13.875 1.98431 15.5 1.98431C17.125 1.98431 18.5521 2.33848 19.7812 3.04681C20.8438 2.33848 22.0521 1.98431 23.4062 1.98431C24.7604 1.98431 25.9896 2.33848 27.0938 3.04681C28.2812 2.33848 29.5104 1.98431 30.7812 1.98431C32.8021 1.98431 34.5729 2.19265 36.0938 2.60931L38.875 3.35931C39.2083 3.44265 39.5312 3.48431 39.8438 3.48431C40.4271 3.48431 40.7188 3.06765 40.7188 2.23431C40.7188 2.02598 40.6458 1.67181 40.5 1.17181C40.8542 0.859314 41.3021 0.703064 41.8438 0.703064C42.3854 0.703064 42.9062 0.796814 43.4062 0.984314C43.9062 1.17181 44.3438 1.44265 44.7188 1.79681C45.5312 2.52598 45.9375 3.57806 45.9375 4.95306C45.9375 6.30723 45.5 7.4739 44.625 8.45306C45.25 9.20306 45.5625 10.151 45.5625 11.2968C45.5625 12.4426 45.1667 13.4843 44.375 14.4218C44.8542 15.276 45.0938 16.1301 45.0938 16.9843C45.0938 17.8385 44.9896 18.6093 44.7812 19.2968C44.5729 19.9843 44.2708 20.5885 43.875 21.1093C43.0208 22.276 41.9479 22.8593 40.6562 22.8593C39.9479 22.8593 39.4688 22.5989 39.2188 22.0781C39.8854 21.1197 40.2188 19.6822 40.2188 17.7656C40.2188 15.8281 39.9583 14.151 39.4375 12.7343C38.9375 11.2968 38.2708 10.0885 37.4375 9.10931C35.75 7.15098 33.7604 6.17181 31.4688 6.17181C30.5938 6.17181 29.8333 6.29681 29.1875 6.54681V21.0468C29.1875 22.0676 29.4062 22.8281 29.8438 23.3281C30.5312 24.1406 31.5833 24.8697 33 25.5156C31.4792 26.2656 30.5104 26.8801 30.0938 27.3593C29.4896 28.1093 29.1875 28.9635 29.1875 29.9218V45.1406C29.5625 45.9739 30.1354 46.5885 30.9062 46.9843C31.6979 47.3801 32.4792 47.5781 33.25 47.5781C34.0208 47.5781 34.6354 47.401 35.0938 47.0468C35.3229 47.3593 35.4375 47.7239 35.4375 48.1406C35.4375 48.5364 35.3125 48.9114 35.0625 49.2656C34.8333 49.6197 34.5104 49.9218 34.0938 50.1718C33.1354 50.7551 32.0104 51.0468 30.7188 51.0468C29.4479 51.0468 28.2292 50.7031 27.0625 50.0156ZM20.6875 42.1406C21.7292 41.7447 22.3021 40.3801 22.4062 38.0468C22.5312 35.7135 22.5938 32.4843 22.5938 28.3593C22.5938 24.2343 22.5833 21.4947 22.5625 20.1406C22.5625 18.7656 22.5521 17.6614 22.5312 16.8281C22.4688 14.3697 22.2292 12.8906 21.8125 12.3906C21.4167 11.8697 21.0417 11.526 20.6875 11.3593C20.6875 18.6093 20.5625 22.7343 20.3125 23.7343C20.0208 24.5676 19.3125 25.1614 18.1875 25.5156C19.4375 25.9531 20.1458 26.4843 20.3125 27.1093C20.5625 28.1093 20.6875 31.7656 20.6875 38.0781V42.1406ZM57.9688 45.7968C56.2396 44.0051 54.8333 41.8489 53.75 39.3281C52.6875 36.8072 52.0312 34.4218 51.7812 32.1718C51.5312 29.9218 51.1458 28.3697 50.625 27.5156C50.125 26.6406 49.4062 25.9739 48.4688 25.5156C50.2812 24.6614 51.3438 22.9114 51.6562 20.2656C51.9896 17.5989 52.7292 15.1093 53.875 12.7968C55.0208 10.4843 56.4792 8.50515 58.25 6.85931C61.9792 3.40098 66.4688 1.67181 71.7188 1.67181C77.1146 1.67181 81.5833 3.27598 85.125 6.48431C88.8125 9.81765 90.9792 14.4843 91.625 20.4843C91.8958 22.9843 92.9583 24.6614 94.8125 25.5156C93 26.4114 91.9271 28.3072 91.5938 31.2031C91.2604 34.0989 90.6042 36.8072 89.625 39.3281C88.6458 41.8489 87.3333 44.0051 85.6875 45.7968C82.25 49.5051 77.6042 51.3593 71.75 51.3593C66.1458 51.3593 61.5521 49.5051 57.9688 45.7968ZM68.1875 25.5156C65.8958 26.6197 64.75 28.4218 64.75 30.9218V40.2031C64.75 43.5989 66.1562 45.776 68.9688 46.7343C69.8021 47.026 70.7083 47.1718 71.6875 47.1718C72.6667 47.1718 73.5625 47.026 74.375 46.7343C75.2083 46.4426 75.9271 46.0051 76.5312 45.4218C77.7812 44.2135 78.4062 42.4739 78.4062 40.2031V30.9218C78.4062 28.4218 77.2812 26.6197 75.0312 25.5156C77.2812 24.4739 78.4062 22.7968 78.4062 20.4843V13.0156C78.4062 10.7031 77.7292 8.90098 76.375 7.60931C75.1042 6.42181 73.5312 5.82806 71.6562 5.82806C68.4688 5.82806 66.3438 7.1614 65.2812 9.82806C64.9271 10.7239 64.75 11.7864 64.75 13.0156V20.4843C64.75 22.8385 65.8958 24.5156 68.1875 25.5156ZM81.2812 11.3593C81.8646 13.1093 82.1562 16.1197 82.1562 20.3906C82.1562 22.8072 82.0521 24.1301 81.8438 24.3593C81.6354 24.5885 81.4271 24.776 81.2188 24.9218C80.8438 25.1718 80.4375 25.3697 80 25.5156C81.25 26.0781 81.9062 26.6197 81.9688 27.1406C82.1771 29.1822 82.2812 30.9531 82.2812 32.4531C82.2812 33.9322 82.2604 35.1301 82.2188 36.0468C82.1771 36.9426 82.1146 37.776 82.0312 38.5468C81.8646 40.1926 81.6562 41.3906 81.4062 42.1406C83.0312 41.6406 83.9375 39.2343 84.125 34.9218C84.2292 32.5051 84.2812 29.8176 84.2812 26.8593C84.2812 23.8801 84.25 21.651 84.1875 20.1718C84.125 18.6718 84.0312 17.4426 83.9062 16.4843C83.6562 14.276 83.1354 12.7447 82.3438 11.8906C82.1146 11.6406 81.7604 11.4635 81.2812 11.3593ZM58.75 42.1406C59.0625 42.0156 59.2188 41.7968 59.2188 41.4843C59.2188 41.026 59 40.3072 58.5625 39.3281C57.4583 36.8072 56.9062 32.2031 56.9062 25.5156C56.9062 20.6406 57.4896 16.4947 58.6562 13.0781C58.8021 12.5572 58.875 12.1614 58.875 11.8906C58.875 11.6197 58.7396 11.4426 58.4688 11.3593C57.4896 12.5885 56.7917 13.8072 56.375 15.0156C55.6042 17.2239 54.9896 20.2135 54.5312 23.9843C54.4688 24.526 53.8542 25.0364 52.6875 25.5156C53.8542 26.0364 54.4688 26.5676 54.5312 27.1093C55.2812 33.5676 56.2396 37.8801 57.4062 40.0468C57.8021 40.8176 58.25 41.5156 58.75 42.1406ZM113.938 50.0156C112.854 50.7031 111.635 51.0468 110.281 51.0468C108.948 51.0468 107.75 50.7135 106.688 50.0468C105.625 50.7135 104.635 51.0468 103.719 51.0468C102.823 51.0468 102.083 50.9635 101.5 50.7968C100.917 50.651 100.406 50.4426 99.9688 50.1718C99.0729 49.6301 98.625 48.9531 98.625 48.1406C98.625 47.7239 98.7396 47.3593 98.9688 47.0468C99.4271 47.401 100.01 47.5781 100.719 47.5781C102.573 47.5781 103.854 46.7864 104.562 45.2031V29.9218C104.562 28.9635 104.365 28.2551 103.969 27.7968C103.344 27.026 102.271 26.2656 100.75 25.5156C102.167 24.8697 103.083 24.2968 103.5 23.7968C104.208 22.9843 104.562 22.0676 104.562 21.0468V7.85931C103.854 6.25515 102.573 5.45306 100.719 5.45306C100.01 5.45306 99.4271 5.63015 98.9688 5.98431C98.7396 5.67181 98.625 5.31765 98.625 4.92181C98.625 4.50515 98.7396 4.11973 98.9688 3.76556C99.2188 3.4114 99.5521 3.10931 99.9688 2.85931C100.927 2.27598 102.021 1.98431 103.25 1.98431C104.5 1.98431 105.646 2.32806 106.688 3.01556C107.771 2.32806 108.969 1.98431 110.281 1.98431C111.615 1.98431 112.812 2.31765 113.875 2.98431C115.938 2.10931 118.26 1.67181 120.844 1.67181C123.448 1.67181 125.698 1.9739 127.594 2.57806C129.49 3.18223 131.198 4.02598 132.719 5.10931C135.885 7.35931 137.979 10.3281 139 14.0156C139.417 15.4531 140.406 16.6301 141.969 17.5468C140.365 18.4426 139.292 19.7968 138.75 21.6093C138.208 23.4218 137.302 25.1093 136.031 26.6718C134.781 28.2135 133.344 29.5051 131.719 30.5468C128.406 32.6718 124.885 33.7343 121.156 33.7343C119.531 33.7343 117.833 33.526 116.062 33.1093V45.0468C116.625 46.2551 117.781 47.0468 119.531 47.4218C119.99 47.526 120.5 47.5781 121.062 47.5781C121.625 47.5781 122.135 47.401 122.594 47.0468C122.823 47.3593 122.938 47.7239 122.938 48.1406C122.938 48.5364 122.781 48.9114 122.469 49.2656C122.177 49.6197 121.781 49.9218 121.281 50.1718C120.177 50.7551 118.969 51.0468 117.656 51.0468C116.344 51.0468 115.104 50.7031 113.938 50.0156ZM116.062 24.9531C116.062 26.3697 116.583 27.5051 117.625 28.3593C118.583 29.151 119.812 29.5468 121.312 29.5468C123.604 29.5468 125.26 28.6718 126.281 26.9218C126.635 26.3176 126.812 25.5781 126.812 24.7031V10.5781C126.812 9.07806 126.24 7.90098 125.094 7.04681C124.052 6.25515 123.01 5.85931 121.969 5.85931C120.948 5.85931 120.104 5.96348 119.438 6.17181C118.792 6.35931 118.219 6.65098 117.719 7.04681C116.615 7.92181 116.062 9.14056 116.062 10.7031V24.9531ZM128.844 28.1718C129.323 28.0885 129.812 27.5051 130.312 26.4218C130.833 25.3385 131.219 24.0676 131.469 22.6093C131.74 21.1301 132.073 20.0468 132.469 19.3593C132.865 18.651 133.5 18.151 134.375 17.8593C132.938 17.3801 132.031 16.1093 131.656 14.0468C131.281 11.9635 130.833 10.4322 130.312 9.45306C129.812 8.4739 129.323 7.94265 128.844 7.85931C129.615 9.58848 130 12.9218 130 17.8593C130 21.151 129.833 23.6301 129.5 25.2968C129.167 26.9635 128.948 27.9218 128.844 28.1718ZM107.562 42.1406C108.604 41.7447 109.177 40.3801 109.281 38.0468C109.406 35.7135 109.469 32.4843 109.469 28.3593C109.469 24.2343 109.458 21.4947 109.438 20.1406C109.438 18.7656 109.427 17.6614 109.406 16.8281C109.344 14.3697 109.104 12.8906 108.688 12.3906C108.292 11.8697 107.917 11.526 107.562 11.3593C107.562 18.6093 107.438 22.7343 107.188 23.7343C106.896 24.5676 106.188 25.1614 105.062 25.5156C106.312 25.9531 107.021 26.4843 107.188 27.1093C107.438 28.1093 107.562 31.7656 107.562 38.0781V42.1406ZM215.031 22.9218C215.031 24.0468 216.042 24.9114 218.062 25.5156C216.354 26.2031 215.167 26.8489 214.5 27.4531C213.229 28.6406 212.229 30.1822 211.5 32.0781L206.062 47.7031C204.896 50.6614 204.01 52.3281 203.406 52.7031C203.219 52.8281 203 52.8906 202.75 52.8906C202.5 52.8906 202.292 52.8176 202.125 52.6718L191.469 21.7031L181.688 47.7031C180.521 50.6197 179.635 52.2864 179.031 52.7031C178.844 52.8281 178.625 52.8906 178.375 52.8906C178.125 52.8906 177.917 52.8176 177.75 52.6718L167.656 29.9531C167.156 28.7656 166.625 27.9218 166.062 27.4218C165.188 26.6718 164.042 26.0364 162.625 25.5156C164.417 24.4947 165.292 23.5468 165.25 22.6718C165.25 22.1093 165.042 21.3281 164.625 20.3281L163.75 18.2031L159.5 6.73431C158.417 5.98431 157.469 5.60931 156.656 5.60931C155.865 5.60931 155.208 5.7864 154.688 6.14056C154.458 5.9739 154.344 5.6614 154.344 5.20306C154.344 4.74473 154.417 4.32806 154.562 3.95306C154.708 3.55723 154.938 3.21348 155.25 2.92181C155.917 2.29681 156.885 1.98431 158.156 1.98431C159.427 1.98431 160.552 2.3489 161.531 3.07806C162.573 2.3489 163.802 1.98431 165.219 1.98431C166.656 1.98431 167.833 2.33848 168.75 3.04681C169.854 2.33848 170.885 1.98431 171.844 1.98431C172.802 1.98431 173.573 2.05723 174.156 2.20306C174.74 2.32806 175.25 2.52598 175.688 2.79681C176.625 3.33848 177.115 4.08848 177.156 5.04681C177.156 5.63015 177.042 5.99473 176.812 6.14056C176.25 5.7864 175.677 5.60931 175.094 5.60931C173.781 5.60931 172.76 5.85931 172.031 6.35931L182.188 34.7343L189.094 14.8281L186.312 6.70306C185.25 5.9739 184.323 5.60931 183.531 5.60931C182.74 5.60931 182.083 5.7864 181.562 6.14056C181.333 5.9739 181.219 5.6614 181.219 5.20306C181.219 4.74473 181.292 4.32806 181.438 3.95306C181.583 3.55723 181.812 3.21348 182.125 2.92181C182.792 2.29681 183.76 1.98431 185.031 1.98431C186.302 1.98431 187.427 2.3489 188.406 3.07806C189.448 2.3489 190.677 1.98431 192.094 1.98431C193.531 1.98431 194.708 2.33848 195.625 3.04681C196.729 2.33848 197.76 1.98431 198.719 1.98431C199.677 1.98431 200.448 2.05723 201.031 2.20306C201.615 2.32806 202.125 2.52598 202.562 2.79681C203.5 3.33848 203.99 4.08848 204.031 5.04681C204.031 5.63015 203.917 5.99473 203.688 6.14056C203.125 5.7864 202.552 5.60931 201.969 5.60931C200.615 5.60931 199.583 5.86973 198.875 6.39056L207.219 32.5468L215.656 6.45306C214.99 5.7864 214.031 5.45306 212.781 5.45306C211.531 5.45306 210.604 5.63015 210 5.98431C209.792 5.67181 209.688 5.18223 209.688 4.51556C209.688 3.8489 209.969 3.26556 210.531 2.76556C211.094 2.24473 211.896 1.98431 212.938 1.98431C213.979 1.98431 214.875 2.25515 215.625 2.79681C216.292 2.25515 217.104 1.98431 218.062 1.98431C219.021 1.98431 219.823 2.21348 220.469 2.67181C221.385 2.21348 222.302 1.98431 223.219 1.98431C224.135 1.98431 224.865 2.2864 225.406 2.89056C225.969 3.4739 226.25 4.23431 226.25 5.17181C226.25 5.65098 226.135 5.9739 225.906 6.14056C225.365 5.7864 224.708 5.60931 223.938 5.60931C222.521 5.60931 221.323 6.14056 220.344 7.20306L216.094 18.9218C215.385 20.8801 215.031 22.2135 215.031 22.9218ZM192.469 11.2343C192.156 11.6718 192 12.3281 192 13.2031C192 14.0781 192.177 15.026 192.531 16.0468L193.656 19.3906L202.125 42.1406C202.229 42.0156 202.26 41.7968 202.219 41.4843C202.198 41.1718 202.188 40.7239 202.188 40.1406C202.188 39.5364 202.156 39.0156 202.094 38.5781C202.031 38.1197 201.948 37.651 201.844 37.1718C201.698 36.3385 201.448 35.401 201.094 34.3593L192.469 11.2343ZM166.344 11.3593C165.927 11.6093 165.719 12.0051 165.719 12.5468C165.719 13.0676 165.74 13.4635 165.781 13.7343C165.823 14.0051 165.906 14.3593 166.031 14.7968C166.302 15.901 166.646 17.0676 167.062 18.2968C167.5 19.5051 167.792 20.3697 167.938 20.8906C168.083 21.3906 168.188 21.8176 168.25 22.1718C168.333 22.526 168.385 22.8176 168.406 23.0468C168.427 23.276 168.448 23.526 168.469 23.7968C168.51 24.3593 167.865 24.9114 166.531 25.4531C167.385 25.6197 168.052 25.7656 168.531 25.8906C169.031 26.0156 169.385 26.2551 169.594 26.6093C169.802 26.9426 170.094 27.5051 170.469 28.2968C170.865 29.0885 171.281 29.9843 171.719 30.9843L173.062 34.1718C173.521 35.276 173.917 36.2968 174.25 37.2343C174.604 38.1718 174.927 38.9426 175.219 39.5468C175.531 40.1301 175.823 40.6093 176.094 40.9843C176.615 41.6301 177.219 42.0156 177.906 42.1406C176.76 39.3281 175.677 36.5572 174.656 33.8281C173.656 31.0781 172.635 28.4322 171.594 25.8906C170.552 23.3281 169.635 20.8385 168.844 18.4218C168.073 16.0051 167.24 13.651 166.344 11.3593ZM238.031 51.0468C236.656 51.0468 235.438 50.7135 234.375 50.0468C233.312 50.7135 232.323 51.0468 231.406 51.0468C230.51 51.0468 229.771 50.9635 229.188 50.7968C228.604 50.651 228.094 50.4426 227.656 50.1718C226.76 49.6301 226.312 48.9531 226.312 48.1406C226.312 47.7239 226.427 47.3593 226.656 47.0468C227.115 47.401 227.698 47.5781 228.406 47.5781C230.26 47.5781 231.542 46.7864 232.25 45.2031V29.9218C232.25 28.9635 232.052 28.2551 231.656 27.7968C231.031 27.026 229.958 26.2656 228.438 25.5156C229.854 24.8697 230.771 24.2968 231.188 23.7968C231.896 22.9843 232.25 22.0676 232.25 21.0468V7.85931C231.542 6.25515 230.26 5.45306 228.406 5.45306C227.698 5.45306 227.115 5.63015 226.656 5.98431C226.427 5.67181 226.312 5.31765 226.312 4.92181C226.312 4.50515 226.427 4.11973 226.656 3.76556C226.906 3.4114 227.24 3.10931 227.656 2.85931C228.615 2.27598 229.708 1.98431 230.938 1.98431C232.188 1.98431 233.333 2.32806 234.375 3.01556C235.458 2.32806 236.698 1.98431 238.094 1.98431C239.49 1.98431 240.76 2.39056 241.906 3.20306C244.115 2.39056 246.667 1.98431 249.562 1.98431C251.708 1.98431 253.542 2.19265 255.062 2.60931L257.844 3.35931C258.177 3.44265 258.5 3.48431 258.812 3.48431C259.396 3.48431 259.688 3.06765 259.688 2.23431C259.688 2.02598 259.615 1.67181 259.469 1.17181C260.052 1.06765 260.792 1.01556 261.688 1.01556C262.583 1.01556 263.344 1.31765 263.969 1.92181C264.594 2.50515 264.906 3.35931 264.906 4.48431C264.906 5.58848 264.708 6.40098 264.312 6.92181C264.875 7.75515 265.156 8.77598 265.156 9.98431C265.156 11.1718 264.75 12.1718 263.938 12.9843C264.188 13.6093 264.312 14.2239 264.312 14.8281C264.312 15.4114 264.208 15.9531 264 16.4531C263.812 16.9322 263.573 17.3385 263.281 17.6718C262.698 18.276 262.104 18.5781 261.5 18.5781C260.625 18.5781 259.833 18.3906 259.125 18.0156C259.375 17.5156 259.5 16.776 259.5 15.7968C259.5 13.5051 258.927 11.4947 257.781 9.76556C256.219 7.39056 253.875 6.20306 250.75 6.20306C249.167 6.20306 247.729 6.58848 246.438 7.35931C245.167 8.13015 244.271 9.23431 243.75 10.6718V22.7656C244.479 23.2239 245.156 23.4531 245.781 23.4531C246.427 23.4531 246.906 23.4426 247.219 23.4218C247.552 23.401 247.885 23.3593 248.219 23.2968C249.073 23.1718 249.729 23.0051 250.188 22.7968C251.062 22.3801 251.5 21.3593 251.5 19.7343C251.5 18.8176 251.281 18.1093 250.844 17.6093C251.26 17.3176 251.781 17.1718 252.406 17.1718C253.802 17.1718 254.812 17.7343 255.438 18.8593C255.667 19.2551 255.781 19.6926 255.781 20.1718C255.781 20.651 255.656 21.2447 255.406 21.9531C256.26 22.9322 256.688 24.0989 256.688 25.4531C256.688 26.7864 256.26 27.9426 255.406 28.9218C255.656 29.6301 255.781 30.276 255.781 30.8593C255.781 31.4218 255.667 31.9635 255.438 32.4843C255.208 33.0051 254.927 33.4218 254.594 33.7343C253.948 34.3176 253.219 34.6093 252.406 34.6093C251.823 34.6093 251.302 34.4426 250.844 34.1093C251.281 33.3801 251.5 32.526 251.5 31.5468C251.5 29.6093 250.969 28.4114 249.906 27.9531C248.969 27.5781 247.896 27.3906 246.688 27.3906C245.479 27.3906 244.5 27.6093 243.75 28.0468V43.6718C244.958 45.7968 247.292 46.8593 250.75 46.8593C254.667 46.8593 257.333 45.651 258.75 43.2343C260.396 40.4635 261.219 37.4947 261.219 34.3281C261.219 33.4114 261.135 32.7031 260.969 32.2031C261.49 31.6822 262.031 31.4218 262.594 31.4218C263.156 31.4218 263.583 31.5051 263.875 31.6718C264.167 31.8176 264.427 32.0051 264.656 32.2343C265.156 32.7968 265.406 33.3697 265.406 33.9531L265.219 35.4843C265.219 35.8801 265.323 36.2031 265.531 36.4531C265.948 36.8906 266.156 37.3072 266.156 37.7031C266.156 38.0781 266.031 38.5364 265.781 39.0781C266.26 39.3489 266.688 39.7551 267.062 40.2968C267.458 40.8176 267.656 41.3593 267.656 41.9218C267.656 43.1093 267.156 44.1718 266.156 45.1093C266.594 45.7343 266.812 46.6406 266.812 47.8281C266.812 48.9947 266.469 49.9843 265.781 50.7968C265.115 51.6301 264.24 52.0468 263.156 52.0468C262.573 52.0468 261.969 51.9843 261.344 51.8593C261.427 51.401 261.469 50.9426 261.469 50.4843C261.469 49.526 261.031 49.0468 260.156 49.0468C259.177 49.0468 258.198 49.2447 257.219 49.6406C254.906 50.5781 252.271 51.0468 249.312 51.0468C246.375 51.0468 243.875 50.6614 241.812 49.8906C240.729 50.6614 239.469 51.0468 238.031 51.0468ZM235.25 42.1406C236.292 41.7447 236.865 40.3801 236.969 38.0468C237.094 35.7135 237.156 32.4843 237.156 28.3593C237.156 24.2343 237.146 21.4947 237.125 20.1406C237.125 18.7656 237.115 17.6614 237.094 16.8281C237.031 14.3697 236.792 12.8906 236.375 12.3906C235.979 11.8697 235.604 11.526 235.25 11.3593C235.25 18.6093 235.125 22.7343 234.875 23.7343C234.583 24.5676 233.875 25.1614 232.75 25.5156C234 25.9531 234.708 26.4843 234.875 27.1093C235.125 28.1093 235.25 31.7656 235.25 38.0781V42.1406ZM243.125 41.8281C243.125 41.8906 243.135 41.9426 243.156 41.9843L243.125 41.8281ZM272.75 50.2031C271.979 50.7656 271.094 51.0468 270.094 51.0468C269.115 51.0468 268.333 50.7968 267.75 50.2968C267.146 49.776 266.844 49.1822 266.844 48.5156C266.844 47.8489 266.948 47.3593 267.156 47.0468C267.76 47.401 268.5 47.5781 269.375 47.5781C270.271 47.5781 270.938 47.4635 271.375 47.2343C271.833 46.9843 272.271 46.651 272.688 46.2343L277.125 33.0781L277.75 30.9218C277.938 30.276 278.031 29.6822 278.031 29.1406C278.031 27.2447 277.135 26.0364 275.344 25.5156C276.99 24.8906 278.146 24.2135 278.812 23.4843C279.854 22.3385 280.677 20.8281 281.281 18.9531L284.719 7.42181C284.052 6.52598 283.26 6.07806 282.344 6.07806C281.427 6.07806 280.573 6.27598 279.781 6.67181C279.573 6.29681 279.469 5.88015 279.469 5.42181C279.469 4.94265 279.562 4.49473 279.75 4.07806C279.958 3.6614 280.24 3.29681 280.594 2.98431C281.385 2.31765 282.51 1.98431 283.969 1.98431C285.427 1.98431 286.667 2.42181 287.688 3.29681C288.729 2.42181 290.021 1.98431 291.562 1.98431C293.125 1.98431 294.365 2.40098 295.281 3.23431C296.615 2.40098 297.969 1.98431 299.344 1.98431C300.719 1.98431 301.781 2.24473 302.531 2.76556C303.302 3.2864 303.688 3.99473 303.688 4.89056C303.688 5.30723 303.562 5.67181 303.312 5.98431C302.833 5.63015 302.271 5.45306 301.625 5.45306C300.229 5.45306 299.323 6.40098 298.906 8.29681L302.906 21.0781C303.406 22.6822 304.656 23.9322 306.656 24.8281C307.219 25.0781 307.792 25.3072 308.375 25.5156C306.292 26.2031 305.25 27.2343 305.25 28.6093C305.25 29.1301 305.333 29.5885 305.5 29.9843L311.469 45.9843C312.385 46.9426 313.312 47.4218 314.25 47.4218C315.188 47.4218 315.917 47.2447 316.438 46.8906C316.667 47.0572 316.781 47.3697 316.781 47.8281C316.781 48.2864 316.708 48.7135 316.562 49.1093C316.417 49.4843 316.188 49.8176 315.875 50.1093C315.208 50.7343 314.229 51.0468 312.938 51.0468C311.646 51.0468 310.521 50.6926 309.562 49.9843C308.479 50.6926 307.25 51.0468 305.875 51.0468C304.521 51.0468 303.354 50.7031 302.375 50.0156C301.438 50.7031 300.333 51.0468 299.062 51.0468C297.792 51.0468 296.74 50.7864 295.906 50.2656C295.073 49.7239 294.635 48.9635 294.594 47.9843C294.594 47.401 294.708 47.0364 294.938 46.8906C295.5 47.2447 296.073 47.4218 296.656 47.4218C297.885 47.4218 298.75 47.1718 299.25 46.6718L296.875 38.7031H279.969L277.906 45.6093C278.76 46.9218 279.792 47.5781 281 47.5781C282.229 47.5781 283.146 47.401 283.75 47.0468C283.979 47.4218 284.094 47.9426 284.094 48.6093C284.094 49.2551 283.771 49.8281 283.125 50.3281C282.479 50.8072 281.646 51.0468 280.625 51.0468C279.604 51.0468 278.667 50.7864 277.812 50.2656C277.062 50.7864 276.198 51.0468 275.219 51.0468C274.26 51.0468 273.438 50.7656 272.75 50.2031ZM295.594 34.4843L288.344 10.3906L281.219 34.4843H295.594ZM301.562 42.1406C301.938 42.1406 302.125 41.7239 302.125 40.8906C302.125 39.4322 301.906 38.0156 301.469 36.6406L300.281 32.9843C299.448 30.2343 299.031 28.5051 299.031 27.7968C299.01 26.6301 299.521 25.8593 300.562 25.4843C299.125 25.1926 298.25 24.7447 297.938 24.1406C297.792 23.8906 297.667 23.6926 297.562 23.5468C297.479 23.401 297.385 23.2343 297.281 23.0468C297.198 22.8385 297.094 22.5781 296.969 22.2656C296.844 21.9531 296.677 21.5051 296.469 20.9218L294.531 15.0781C294.073 13.6197 293.396 12.5156 292.5 11.7656C292.229 11.5364 291.979 11.401 291.75 11.3593C293.146 16.401 294.062 19.6301 294.5 21.0468C297.521 30.3385 299.333 35.8489 299.938 37.5781L301.562 42.1406ZM310.781 44.9531L310.844 45.1406L310.781 44.9531ZM332.25 50.0156C331.167 50.7031 329.948 51.0468 328.594 51.0468C327.26 51.0468 326.062 50.7135 325 50.0468C323.938 50.7135 322.948 51.0468 322.031 51.0468C321.135 51.0468 320.396 50.9635 319.812 50.7968C319.229 50.651 318.719 50.4426 318.281 50.1718C317.385 49.6301 316.938 48.9531 316.938 48.1406C316.938 47.7239 317.052 47.3593 317.281 47.0468C317.74 47.401 318.323 47.5781 319.031 47.5781C320.885 47.5781 322.167 46.7864 322.875 45.2031V29.9218C322.875 28.9635 322.677 28.2551 322.281 27.7968C321.656 27.026 320.583 26.2656 319.062 25.5156C320.479 24.8697 321.396 24.2968 321.812 23.7968C322.521 22.9843 322.875 22.0676 322.875 21.0468V7.85931C322.167 6.25515 320.885 5.45306 319.031 5.45306C318.323 5.45306 317.74 5.63015 317.281 5.98431C317.052 5.67181 316.938 5.31765 316.938 4.92181C316.938 4.50515 317.052 4.11973 317.281 3.76556C317.531 3.4114 317.865 3.10931 318.281 2.85931C319.24 2.27598 320.333 1.98431 321.562 1.98431C322.812 1.98431 323.958 2.32806 325 3.01556C326.083 2.32806 327.281 1.98431 328.594 1.98431C329.927 1.98431 331.125 2.31765 332.188 2.98431C334.25 2.10931 336.573 1.67181 339.156 1.67181C341.76 1.67181 344.01 1.9739 345.906 2.57806C347.802 3.18223 349.51 4.02598 351.031 5.10931C354.198 7.35931 356.292 10.3281 357.312 14.0156C357.729 15.4531 358.719 16.6301 360.281 17.5468C358.677 18.4426 357.604 19.7968 357.062 21.6093C356.521 23.4218 355.615 25.1093 354.344 26.6718C353.094 28.2135 351.656 29.5051 350.031 30.5468C346.719 32.6718 343.198 33.7343 339.469 33.7343C337.844 33.7343 336.146 33.526 334.375 33.1093V45.0468C334.938 46.2551 336.094 47.0468 337.844 47.4218C338.302 47.526 338.812 47.5781 339.375 47.5781C339.938 47.5781 340.448 47.401 340.906 47.0468C341.135 47.3593 341.25 47.7239 341.25 48.1406C341.25 48.5364 341.094 48.9114 340.781 49.2656C340.49 49.6197 340.094 49.9218 339.594 50.1718C338.49 50.7551 337.281 51.0468 335.969 51.0468C334.656 51.0468 333.417 50.7031 332.25 50.0156ZM334.375 24.9531C334.375 26.3697 334.896 27.5051 335.938 28.3593C336.896 29.151 338.125 29.5468 339.625 29.5468C341.917 29.5468 343.573 28.6718 344.594 26.9218C344.948 26.3176 345.125 25.5781 345.125 24.7031V10.5781C345.125 9.07806 344.552 7.90098 343.406 7.04681C342.365 6.25515 341.323 5.85931 340.281 5.85931C339.26 5.85931 338.417 5.96348 337.75 6.17181C337.104 6.35931 336.531 6.65098 336.031 7.04681C334.927 7.92181 334.375 9.14056 334.375 10.7031V24.9531ZM347.156 28.1718C347.635 28.0885 348.125 27.5051 348.625 26.4218C349.146 25.3385 349.531 24.0676 349.781 22.6093C350.052 21.1301 350.385 20.0468 350.781 19.3593C351.177 18.651 351.812 18.151 352.688 17.8593C351.25 17.3801 350.344 16.1093 349.969 14.0468C349.594 11.9635 349.146 10.4322 348.625 9.45306C348.125 8.4739 347.635 7.94265 347.156 7.85931C347.927 9.58848 348.312 12.9218 348.312 17.8593C348.312 21.151 348.146 23.6301 347.812 25.2968C347.479 26.9635 347.26 27.9218 347.156 28.1718ZM325.875 42.1406C326.917 41.7447 327.49 40.3801 327.594 38.0468C327.719 35.7135 327.781 32.4843 327.781 28.3593C327.781 24.2343 327.771 21.4947 327.75 20.1406C327.75 18.7656 327.74 17.6614 327.719 16.8281C327.656 14.3697 327.417 12.8906 327 12.3906C326.604 11.8697 326.229 11.526 325.875 11.3593C325.875 18.6093 325.75 22.7343 325.5 23.7343C325.208 24.5676 324.5 25.1614 323.375 25.5156C324.625 25.9531 325.333 26.4843 325.5 27.1093C325.75 28.1093 325.875 31.7656 325.875 38.0781V42.1406ZM370.031 45.7968C368.302 44.0051 366.896 41.8489 365.812 39.3281C364.75 36.8072 364.094 34.4218 363.844 32.1718C363.594 29.9218 363.208 28.3697 362.688 27.5156C362.188 26.6406 361.469 25.9739 360.531 25.5156C362.344 24.6614 363.406 22.9114 363.719 20.2656C364.052 17.5989 364.792 15.1093 365.938 12.7968C367.083 10.4843 368.542 8.50515 370.312 6.85931C374.042 3.40098 378.531 1.67181 383.781 1.67181C389.177 1.67181 393.646 3.27598 397.188 6.48431C400.875 9.81765 403.042 14.4843 403.688 20.4843C403.958 22.9843 405.021 24.6614 406.875 25.5156C405.062 26.4114 403.99 28.3072 403.656 31.2031C403.323 34.0989 402.667 36.8072 401.688 39.3281C400.708 41.8489 399.396 44.0051 397.75 45.7968C394.312 49.5051 389.667 51.3593 383.812 51.3593C378.208 51.3593 373.615 49.5051 370.031 45.7968ZM380.25 25.5156C377.958 26.6197 376.812 28.4218 376.812 30.9218V40.2031C376.812 43.5989 378.219 45.776 381.031 46.7343C381.865 47.026 382.771 47.1718 383.75 47.1718C384.729 47.1718 385.625 47.026 386.438 46.7343C387.271 46.4426 387.99 46.0051 388.594 45.4218C389.844 44.2135 390.469 42.4739 390.469 40.2031V30.9218C390.469 28.4218 389.344 26.6197 387.094 25.5156C389.344 24.4739 390.469 22.7968 390.469 20.4843V13.0156C390.469 10.7031 389.792 8.90098 388.438 7.60931C387.167 6.42181 385.594 5.82806 383.719 5.82806C380.531 5.82806 378.406 7.1614 377.344 9.82806C376.99 10.7239 376.812 11.7864 376.812 13.0156V20.4843C376.812 22.8385 377.958 24.5156 380.25 25.5156ZM393.344 11.3593C393.927 13.1093 394.219 16.1197 394.219 20.3906C394.219 22.8072 394.115 24.1301 393.906 24.3593C393.698 24.5885 393.49 24.776 393.281 24.9218C392.906 25.1718 392.5 25.3697 392.062 25.5156C393.312 26.0781 393.969 26.6197 394.031 27.1406C394.24 29.1822 394.344 30.9531 394.344 32.4531C394.344 33.9322 394.323 35.1301 394.281 36.0468C394.24 36.9426 394.177 37.776 394.094 38.5468C393.927 40.1926 393.719 41.3906 393.469 42.1406C395.094 41.6406 396 39.2343 396.188 34.9218C396.292 32.5051 396.344 29.8176 396.344 26.8593C396.344 23.8801 396.312 21.651 396.25 20.1718C396.188 18.6718 396.094 17.4426 395.969 16.4843C395.719 14.276 395.198 12.7447 394.406 11.8906C394.177 11.6406 393.823 11.4635 393.344 11.3593ZM370.812 42.1406C371.125 42.0156 371.281 41.7968 371.281 41.4843C371.281 41.026 371.062 40.3072 370.625 39.3281C369.521 36.8072 368.969 32.2031 368.969 25.5156C368.969 20.6406 369.552 16.4947 370.719 13.0781C370.865 12.5572 370.938 12.1614 370.938 11.8906C370.938 11.6197 370.802 11.4426 370.531 11.3593C369.552 12.5885 368.854 13.8072 368.438 15.0156C367.667 17.2239 367.052 20.2135 366.594 23.9843C366.531 24.526 365.917 25.0364 364.75 25.5156C365.917 26.0364 366.531 26.5676 366.594 27.1093C367.344 33.5676 368.302 37.8801 369.469 40.0468C369.865 40.8176 370.312 41.5156 370.812 42.1406ZM416.281 50.2031C415.51 50.7656 414.625 51.0468 413.625 51.0468C412.646 51.0468 411.854 50.7968 411.25 50.2968C410.667 49.776 410.375 49.1822 410.375 48.5156C410.375 47.8489 410.479 47.3593 410.688 47.0468C411.292 47.401 412.24 47.5781 413.531 47.5781C414.844 47.5781 415.927 46.6926 416.781 44.9218V29.9218C416.781 28.9426 416.573 28.2135 416.156 27.7343C415.531 26.9843 414.469 26.2447 412.969 25.5156C414.49 24.7864 415.448 24.1822 415.844 23.7031C416.469 22.9114 416.781 22.026 416.781 21.0468V7.85931C416.073 6.25515 414.792 5.45306 412.938 5.45306C412.229 5.45306 411.646 5.63015 411.188 5.98431C410.958 5.67181 410.844 5.30723 410.844 4.89056C410.844 4.4739 410.948 4.08848 411.156 3.73431C411.365 3.38015 411.635 3.06765 411.969 2.79681C412.698 2.25515 413.677 1.98431 414.906 1.98431C416.156 1.98431 417.219 2.32806 418.094 3.01556C418.677 2.32806 419.479 1.98431 420.5 1.98431C421.521 1.98431 422.344 2.33848 422.969 3.04681C423.573 2.33848 424.188 1.98431 424.812 1.98431C425.458 1.98431 425.938 2.04681 426.25 2.17181C426.583 2.29681 426.865 2.46348 427.094 2.67181C427.427 2.94265 427.802 3.4739 428.219 4.26556L447.594 39.1718V29.6406C447.594 28.7239 447.396 28.0468 447 27.6093C446.396 26.9635 445.323 26.2656 443.781 25.5156C445.219 24.8072 446.146 24.2343 446.562 23.7968C447.25 23.0676 447.594 22.2551 447.594 21.3593V8.26556C447.115 7.39056 446.521 6.70306 445.812 6.20306C445.125 5.70306 444.333 5.45306 443.438 5.45306C442.562 5.45306 441.823 5.63015 441.219 5.98431C440.99 5.60931 440.875 5.0989 440.875 4.45306C440.875 3.7864 441.198 3.21348 441.844 2.73431C442.49 2.23431 443.333 1.98431 444.375 1.98431C445.417 1.98431 446.344 2.25515 447.156 2.79681C447.885 2.25515 448.719 1.98431 449.656 1.98431C450.615 1.98431 451.458 2.26556 452.188 2.82806C453 2.26556 453.896 1.98431 454.875 1.98431C455.854 1.98431 456.635 2.24473 457.219 2.76556C457.823 3.26556 458.125 3.8489 458.125 4.51556C458.125 5.18223 458.021 5.67181 457.812 5.98431C457.208 5.63015 456.24 5.45306 454.906 5.45306C453.573 5.45306 452.51 6.3489 451.719 8.14056V21.3593C451.719 22.2551 451.906 22.9114 452.281 23.3281C452.906 24.0156 453.99 24.7447 455.531 25.5156C453.844 26.4322 452.833 27.0676 452.5 27.4218C451.979 27.9843 451.719 28.7239 451.719 29.6406L452.281 45.5156C453.031 46.8906 454.208 47.5781 455.812 47.5781C456.521 47.5781 457.104 47.401 457.562 47.0468C457.792 47.3593 457.906 47.7239 457.906 48.1406C457.906 48.5572 457.802 48.9426 457.594 49.2968C457.385 49.651 457.115 49.9635 456.781 50.2343C456.052 50.776 455.167 51.0468 454.125 51.0468C453.083 51.0468 452.146 50.8385 451.312 50.4218C449.667 51.3593 447.99 51.2864 446.281 50.2031C445.615 50.7656 444.979 51.0468 444.375 51.0468C443.771 51.0468 443.323 50.9947 443.031 50.8906C442.74 50.7864 442.469 50.5989 442.219 50.3281C441.823 49.9322 441.208 48.9426 440.375 47.3593L421.156 14.2343V44.9218C422.01 46.6926 423.094 47.5781 424.406 47.5781C425.719 47.5781 426.677 47.401 427.281 47.0468C427.51 47.4218 427.625 47.9426 427.625 48.6093C427.625 49.2551 427.302 49.8281 426.656 50.3281C426.01 50.8072 425.177 51.0468 424.156 51.0468C423.135 51.0468 422.198 50.7864 421.344 50.2656C420.594 50.7864 419.729 51.0468 418.75 51.0468C417.792 51.0468 416.969 50.7656 416.281 50.2031ZM440.719 42.1406C440.865 41.9531 440.938 41.6614 440.938 41.2656C440.938 40.8489 440.875 40.3906 440.75 39.8906C440.646 39.3697 440.49 38.8176 440.281 38.2343C439.844 37.0676 439.271 35.8176 438.562 34.4843L425.312 11.3593C425.167 11.5885 425.094 12.0051 425.094 12.6093C425.094 13.901 425.979 16.1614 427.75 19.3906L440.719 42.1406Z" fill="white"/>
</svg>
