<svg width="28" height="28" viewBox="0 0 28 28" fill="none" xmlns="http://www.w3.org/2000/svg">
<circle cx="14" cy="14" r="13" stroke="white" stroke-width="2"/>
<path d="M8.46372 13.6111L10.7422 14.5181L11.6241 17.5429C11.6805 17.7366 11.9026 17.8082 12.0501 17.6797L13.3201 16.5754C13.4532 16.4597 13.6429 16.454 13.782 16.5617L16.0727 18.3354C16.2304 18.4577 16.4539 18.3655 16.4934 18.1622L18.1715 9.55359C18.2147 9.33156 18.0101 9.14634 17.8119 9.22811L8.46105 13.0753C8.23029 13.1702 8.2323 13.5186 8.46372 13.6111ZM11.482 14.0353L15.9349 11.1103C16.0149 11.0579 16.0973 11.1733 16.0285 11.2413L12.3536 14.8845C12.2244 15.0128 12.1411 15.1844 12.1175 15.3707L11.9923 16.3601C11.9757 16.4922 11.8017 16.5053 11.7675 16.3775L11.2861 14.5732C11.2309 14.3674 11.3113 14.1476 11.482 14.0353Z" fill="#AE9673"/>
</svg>
