<svg width="28" height="28" viewBox="0 0 28 28" fill="none" xmlns="http://www.w3.org/2000/svg">
<circle cx="14" cy="14" r="13" stroke="white" stroke-width="2"/>
<path d="M19.3449 11.1806C19.2232 10.7189 18.8664 10.355 18.4139 10.2307C17.5874 10 14.2811 10 14.2811 10C14.2811 10 10.975 10 10.1484 10.222C9.70471 10.3461 9.33923 10.719 9.21752 11.1806C9 12.0237 9 13.7723 9 13.7723C9 13.7723 9 15.5297 9.21752 16.3641C9.33936 16.8257 9.696 17.1896 10.1485 17.3139C10.9837 17.5446 14.2813 17.5446 14.2813 17.5446C14.2813 17.5446 17.5874 17.5446 18.4139 17.3227C18.8665 17.1984 19.2232 16.8345 19.345 16.373C19.5625 15.5297 19.5625 13.7812 19.5625 13.7812C19.5625 13.7812 19.5712 12.0237 19.3449 11.1806ZM13.2285 15.3877V12.1569L15.9778 13.7723L13.2285 15.3877Z" fill="#AE9673"/>
</svg>
